<?xml version="1.0" standalone="no"?>
<!DOCTYPE svg PUBLIC "-//W3C//DTD SVG 1.1//EN" "http://www.w3.org/Graphics/SVG/1.1/DTD/svg11.dtd" >
<svg xmlns="http://www.w3.org/2000/svg" xmlns:xlink="http://www.w3.org/1999/xlink" version="1.1">
<metadata>
Created by FontForge 20170731 at Sun Mar  5 18:44:42 2023
 By Aleksey,,,
Copyright (C) 2004-2008 dot colon. All rights reserved.
</metadata>
<defs>
<font id="Vegur-Bold" horiz-adv-x="1290" >
  <font-face 
    font-family="Vegur"
    font-weight="700"
    font-stretch="normal"
    units-per-em="2048"
    panose-1="0 0 0 0 0 0 0 0 0 0"
    ascent="1536"
    descent="-512"
    x-height="1065"
    cap-height="1475"
    bbox="-41 -492 1995 1556"
    underline-thickness="102"
    underline-position="-307"
    unicode-range="U+0020-201D"
  />
<missing-glyph horiz-adv-x="471" 
 />
    <glyph glyph-name=".notdef" horiz-adv-x="471" 
 />
    <glyph glyph-name=".null" horiz-adv-x="0" 
 />
    <glyph glyph-name="nonmarkingreturn" horiz-adv-x="682" 
 />
    <glyph glyph-name="space" unicode=" " horiz-adv-x="450" 
 />
    <glyph glyph-name="exclam" unicode="!" horiz-adv-x="532" 
d="M420 133q0 -63 -45.5 -108t-108.5 -45t-108 45t-45 108t45 108.5t108 45.5t108.5 -45.5t45.5 -108.5zM399 369h-266l-31 1106h328z" />
    <glyph glyph-name="quotedbl" unicode="&#x22;" horiz-adv-x="737" 
d="M379 1516q-22 -90 -57.5 -198t-60.5 -170l-25 -63l-205 -30q37 252 51 430q3 37 21 54t61 17q46 0 100 -10t84 -20zM707 1516q-22 -90 -58 -198t-61 -170l-25 -63l-205 -30q38 252 52 430q3 37 21 54t61 17q46 0 100 -10t84 -20z" />
    <glyph glyph-name="numbersign" unicode="#" horiz-adv-x="1269" 
d="M1096 1475l-84 -396h196v-153h-229l-82 -379h270v-154h-303l-84 -393h-182l84 393h-244l-84 -393h-182l84 393h-195v154h230l80 379h-269v153h301l86 396h183l-86 -396h243l84 396h183zM715 547l82 379h-244l-80 -379h242z" />
    <glyph glyph-name="dollar" unicode="$" horiz-adv-x="1054" 
d="M485 616q-75 30 -130 56.5t-109 63.5t-88 77.5t-55 94t-21 116.5q0 134 95.5 226t252.5 112v174h205v-174h246v-215h-389q-73 0 -115.5 -30.5t-42.5 -92.5q0 -24 15 -45.5t47 -40.5t55.5 -30t69.5 -28.5t59 -23.5q105 -41 174 -78.5t124 -86.5t80 -110.5t25 -140.5
q0 -73 -28.5 -131.5t-78.5 -97.5t-110.5 -63t-130.5 -35v-174h-205v174h-225v215h368q63 0 100.5 31t37.5 81q0 25 -14 47.5t-32.5 39t-53 34.5t-59.5 28.5t-67 26.5z" />
    <glyph glyph-name="percent" unicode="%" horiz-adv-x="1802" 
d="M1382 717q91 0 172.5 -45.5t134 -131.5t52.5 -192q0 -158 -109 -263t-250 -105q-91 0 -172.5 45.5t-133.5 131t-52 191.5q0 80 30.5 150t81 117t115 74.5t131.5 27.5zM1382 133q44 0 78.5 21t53 54t27.5 68.5t9 71.5t-9 71.5t-27.5 68.5t-53 54t-78.5 21t-78.5 -21
t-53 -54t-27.5 -68.5t-9 -71.5t9 -71.5t27.5 -68.5t53 -54t78.5 -21zM420 1495q67 0 131.5 -27.5t115 -74.5t81 -117t30.5 -150q0 -106 -52 -191.5t-133.5 -131t-172.5 -45.5q-141 0 -250 105t-109 263q0 106 52.5 192t134 131.5t172.5 45.5zM420 911q44 0 78.5 21t53 54
t27.5 68.5t9 71.5t-9 71.5t-27.5 68.5t-53 54t-78.5 21t-78.5 -21t-53 -54t-27.5 -68.5t-9 -71.5t9 -71.5t27.5 -68.5t53 -54t78.5 -21zM1260 1536h204l-921 -1597h-205z" />
    <glyph glyph-name="ampersand" unicode="&#x26;" horiz-adv-x="1439" 
d="M1163 309q78 -79 157.5 -156.5t119.5 -114.5l41 -38h-361q-19 19 -58.5 59.5t-60.5 61.5q-168 -141 -397 -141q-109 0 -205.5 28.5t-172.5 83t-120.5 142t-44.5 196.5q0 58 20 110.5t49.5 92t77.5 80t90 68t101 61.5q-6 10 -30 45t-29 43.5t-22.5 36t-22 38.5t-15 34
t-13.5 38.5t-6 36.5t-3 43q0 161 104 249.5t273 88.5q171 0 284 -95.5t113 -242.5q0 -59 -23 -113t-67 -101t-90.5 -83.5t-112.5 -79.5q82 -105 242 -280q22 56 37.5 115t20.5 91l5 31h287q-2 -9 -5 -25.5t-16.5 -66t-30.5 -98t-48 -115t-68 -123.5zM532 1157q0 -63 74 -188
q131 89 131 188q0 53 -30.5 88t-71.5 35q-44 0 -73.5 -31.5t-29.5 -91.5zM604 195q152 0 244 92q-171 186 -311 364q-87 -58 -134 -110.5t-47 -110.5q0 -108 66 -171.5t182 -63.5z" />
    <glyph glyph-name="quotesingle" unicode="'" horiz-adv-x="409" 
d="M379 1516q-22 -90 -57.5 -198t-60.5 -170l-25 -63l-205 -30q37 252 51 430q3 37 21 54t61 17q46 0 100 -10t84 -20z" />
    <glyph glyph-name="parenleft" unicode="(" horiz-adv-x="497" 
d="M262 1475h154q-7 -14 -18 -40.5t-39 -108.5t-50 -164.5t-39.5 -200t-17.5 -224.5t17 -222.5t41 -203.5t48 -160.5t41 -111.5l17 -39h-154q-8 13 -21.5 37.5t-48.5 103t-61.5 160.5t-48 201.5t-21.5 234.5t20.5 233t50.5 205t59.5 157.5t50.5 106.5z" />
    <glyph glyph-name="parenright" unicode=")" horiz-adv-x="497" 
d="M236 1475q8 -13 21.5 -37.5t48 -103.5t61 -160.5t48 -201.5t21.5 -235t-20.5 -233t-50 -204.5t-59 -157t-50.5 -106.5l-20 -36h-154q7 14 18 40.5t39 108t50 164t39.5 200t17.5 224.5t-17 222.5t-41 204t-48 161t-41 111.5l-17 39h154z" />
    <glyph glyph-name="asterisk" unicode="*" horiz-adv-x="722" 
d="M692 1225l-221 -49l150 -172l-150 -107l-115 195l-116 -195l-148 107l150 172l-222 49l58 176l207 -92l-21 227h185l-23 -227l209 92z" />
    <glyph glyph-name="plus" unicode="+" 
d="M1167 598v-133h-430v-445h-184v445h-430v133h430v446h184v-446h430z" />
    <glyph glyph-name="comma" unicode="," horiz-adv-x="399" 
d="M317 184q-22 -90 -57.5 -197.5t-60.5 -170.5l-25 -62l-205 -30q37 252 51 430q3 37 21 54t61 17q46 0 100 -10.5t84 -20.5z" />
    <glyph glyph-name="hyphen" unicode="-" horiz-adv-x="860" 
d="M737 608v-153h-614v153h614z" />
    <glyph glyph-name="period" unicode="." horiz-adv-x="471" 
d="M389 133q0 -63 -45 -108t-108 -45t-108.5 45t-45.5 108t45.5 108.5t108.5 45.5t108 -45.5t45 -108.5z" />
    <glyph glyph-name="slash" unicode="/" horiz-adv-x="882" 
d="M725 1536h199l-768 -1597h-197z" />
    <glyph glyph-name="zero" unicode="0" 
d="M645 1495q169 0 303.5 -102t207.5 -275t73 -381t-73 -380.5t-207.5 -274.5t-303.5 -102t-303.5 102t-207.5 274.5t-73 380.5t73 381t207.5 275t303.5 102zM645 184q141 0 225 148.5t84 404.5t-84 404.5t-225 148.5t-225 -148.5t-84 -404.5t84 -404.5t225 -148.5z" />
    <glyph glyph-name="one" unicode="1" horiz-adv-x="901" 
d="M532 1475h123v-1475h-266v1128l-225 -63v276z" />
    <glyph glyph-name="two" unicode="2" horiz-adv-x="1095" 
d="M719 983q0 43 -6 81t-25 79t-49.5 70t-84 48t-124.5 19q-72 0 -143.5 -15t-107.5 -31l-36 -15v215q12 7 34.5 17t97 27t155.5 17q270 0 427 -134t157 -378q0 -151 -63 -287t-220 -276l-229 -205h502v-215h-922v215v0l465 414q89 79 130.5 161t41.5 193z" />
    <glyph glyph-name="three" unicode="3" horiz-adv-x="1024" 
d="M420 -20q-81 0 -165.5 10t-128.5 20l-44 10v216q139 -41 338 -41q123 0 195.5 59.5t72.5 155.5q0 73 -25 122t-75 75.5t-112 37t-148 10.5v215q79 0 137 9t106 31t72.5 63.5t24.5 101.5q0 94 -58.5 149.5t-189.5 55.5q-68 0 -142.5 -10t-114.5 -20l-40 -11v215
q150 41 297 41q237 0 379.5 -113t142.5 -307q0 -212 -225 -297q37 -13 76 -40t79 -70t65.5 -111t25.5 -147q0 -105 -41.5 -188t-115 -135t-172 -79.5t-214.5 -27.5z" />
    <glyph glyph-name="four" unicode="4" horiz-adv-x="1208" 
d="M952 563h195v-215h-195v-348h-266v348h-625v221l619 906h272v-912zM686 860q0 39 2.5 96t5.5 94l2 37h-2q-51 -103 -137 -227l-203 -297h332v297z" />
    <glyph glyph-name="five" unicode="5" horiz-adv-x="1105" 
d="M471 942q131 0 237 -37.5t174.5 -103t105 -153t36.5 -187.5t-36.5 -187.5t-105 -153t-174.5 -103t-237 -37.5q-89 0 -186.5 15t-150.5 31l-52 15v215q22 -7 60 -17t140.5 -27t188.5 -17q72 0 128 24t87.5 63.5t47.5 85t16 93.5t-16 93.5t-47.5 85t-87.5 63.5t-128 24
q-86 0 -178 -15.5t-141 -30.5l-50 -15l82 809h779v-215h-553l-33 -322q58 4 94 4z" />
    <glyph glyph-name="six" unicode="6" horiz-adv-x="1167" 
d="M573 -20q-160 0 -277.5 94t-176 254.5t-58.5 367.5q0 394 175.5 596.5t480.5 202.5q64 0 125.5 -7.5t91.5 -15.5l29 -8v-204q-105 30 -246 30q-89 0 -160 -30t-114.5 -80.5t-66 -111.5t-22.5 -126q4 3 11 8.5t30.5 20t49.5 25t66.5 19.5t82.5 9q71 0 141.5 -19
t137.5 -61.5t118.5 -104.5t83 -154.5t31.5 -203.5q0 -115 -44 -211.5t-118 -158.5t-170 -96.5t-201 -34.5zM573 819q-110 0 -174.5 -48t-64.5 -146q0 -210 64.5 -325.5t195.5 -115.5q100 0 168.5 76.5t68.5 220.5q0 145 -72 241.5t-186 96.5z" />
    <glyph glyph-name="seven" unicode="7" horiz-adv-x="1034" 
d="M993 1475v-205l-516 -1270h-278l512 1270h-680v205h962z" />
    <glyph glyph-name="eight" unicode="8" horiz-adv-x="1167" 
d="M842 774q264 -130 264 -373q0 -91 -32.5 -164.5t-84.5 -120.5t-121.5 -78.5t-140 -44.5t-143.5 -13t-143.5 13t-140 44.5t-122 78.5t-85 120.5t-32.5 164.5q0 242 265 373q-224 104 -224 326q0 70 30.5 138t87.5 126.5t152 94.5t212 36q94 0 174.5 -24t136 -63.5
t94.5 -91t57.5 -106.5t18.5 -110q0 -223 -223 -326zM584 1290q-86 0 -146.5 -48.5t-60.5 -141.5q0 -62 21.5 -108.5t51.5 -68t60.5 -34t51.5 -13.5l22 -2q4 0 11.5 0.5t29 5.5t41 12.5t43.5 25t41 40t29 59.5t12 83q0 93 -60.5 141.5t-146.5 48.5zM584 184q96 0 171.5 56
t75.5 161q0 56 -25.5 104t-61.5 77t-72.5 50t-61.5 30l-26 8q-10 -3 -27 -9t-59.5 -28.5t-75 -50.5t-59.5 -76.5t-27 -104.5q0 -105 76 -161t172 -56z" />
    <glyph glyph-name="nine" unicode="9" horiz-adv-x="1167" 
d="M594 1495q160 0 277.5 -94.5t176 -255t58.5 -367.5q0 -394 -175 -596t-480 -202q-64 0 -125.5 7.5t-91.5 14.5l-29 8v205q105 -31 246 -31q89 0 160 30t114 80.5t65.5 111t22.5 126.5q-4 -3 -11 -8.5t-30.5 -19.5t-49.5 -24.5t-66.5 -19.5t-82.5 -9q-71 0 -141.5 19
t-137.5 61.5t-118.5 104t-83 154t-31.5 203.5q0 115 44 211.5t118 159t170 97t201 34.5zM594 655q110 0 175 48t65 147q0 210 -64.5 325t-196.5 115q-100 0 -168.5 -76.5t-68.5 -220.5q0 -145 72 -241.5t186 -96.5z" />
    <glyph glyph-name="colon" unicode=":" horiz-adv-x="471" 
d="M389 932q0 -63 -45 -108.5t-108 -45.5t-108.5 45.5t-45.5 108.5t45.5 108t108.5 45t108 -45t45 -108zM389 133q0 -63 -45 -108t-108 -45t-108.5 45t-45.5 108t45.5 108.5t108.5 45.5t108 -45.5t45 -108.5z" />
    <glyph glyph-name="semicolon" unicode=";" horiz-adv-x="409" 
d="M328 932q0 -63 -45.5 -108.5t-108.5 -45.5t-108.5 45.5t-45.5 108.5t45.5 108t108.5 45t108.5 -45t45.5 -108zM317 184q-22 -90 -57.5 -197.5t-60.5 -170.5l-25 -62l-205 -30q37 252 51 430q3 37 21 54t61 17q46 0 100 -10.5t84 -20.5z" />
    <glyph glyph-name="less" unicode="&#x3c;" horiz-adv-x="1034" 
d="M952 1425v-211l-755 -477l755 -479v-211l-921 584v211z" />
    <glyph glyph-name="equal" unicode="=" horiz-adv-x="1146" 
d="M1024 672h-901v153h901v-153zM1024 238h-901v153h901v-153z" />
    <glyph glyph-name="greater" unicode="&#x3e;" horiz-adv-x="1034" 
d="M82 1425l922 -583v-211l-922 -584v211l756 479l-756 477v211z" />
    <glyph glyph-name="question" unicode="?" horiz-adv-x="917" 
d="M580 133q0 63 -45.5 108.5t-108.5 45.5t-108.5 -45.5t-45.5 -108.5t45.5 -108t108.5 -45t108.5 45t45.5 108zM670 709q-62 -66 -102 -134.5t-40 -113.5q0 -27 3 -50t5 -33l3 -9h-267q-10 36 -10 102q0 30 12 62.5t48 86.5t60.5 86.5t90.5 118.5q111 146 111 240
q0 215 -219 215q-38 0 -76.5 -3.5t-70 -8.5t-61 -11.5t-52 -13.5t-39.5 -12t-26 -9l-9 -3v215q14 7 40.5 17t113.5 27t180 17q125 0 222.5 -38t154.5 -101t85.5 -137t28.5 -154q0 -97 -50 -180.5t-136 -175.5z" />
    <glyph glyph-name="at" unicode="@" horiz-adv-x="1746" 
d="M983 1454q159 0 293 -59.5t222.5 -159t138 -229t49.5 -269.5q0 -112 -30 -201.5t-79 -142t-106.5 -79.5t-118.5 -27q-66 0 -125.5 49t-73.5 135q-56 -123 -142.5 -179t-211.5 -56q-58 0 -115.5 23t-105.5 64.5t-77.5 107t-29.5 142.5q0 230 129.5 371t321.5 141
q76 0 168 -19.5t146 -39.5l54 -20l-49 -211q-31 -149 -7.5 -252t97.5 -103q85 0 124.5 80.5t39.5 216.5q0 106 -32 204.5t-93 180t-161 130t-226 48.5q-166 0 -304 -56.5t-231 -156t-144.5 -236.5t-51.5 -298q0 -144 69 -260t184.5 -179t252.5 -63q77 0 158.5 10.5t142 25.5
t110 30.5t75.5 26.5l26 10v-154l-27.5 -11t-73 -24.5t-112.5 -31t-139.5 -24.5t-159.5 -11q-306 0 -501.5 183.5t-195.5 471.5q0 192 69.5 359.5t191.5 286.5t293 187t368 68zM1004 584l75 309q-78 39 -178 39q-103 0 -171 -102.5t-68 -256.5q0 -86 43 -135t94 -49
q81 0 130 42.5t75 152.5z" />
    <glyph glyph-name="A" unicode="A" horiz-adv-x="1400" 
d="M1085 0l-127 369h-516l-127 -369h-295l533 1475h295l532 -1475h-295zM510 582h381l-82 241q-80 233 -109 359h-2q-28 -133 -106 -359z" />
    <glyph glyph-name="B" unicode="B" horiz-adv-x="1249" 
d="M901 772q134 -38 210.5 -129.5t76.5 -232.5q0 -211 -157 -320.5t-458 -109.5q-95 0 -207.5 5t-177.5 10l-65 5v1475q278 20 450 20q274 0 424 -114t150 -316q0 -121 -72.5 -195.5t-173.5 -97.5zM410 1270v-420q85 -4 163 -4q141 0 210 51.5t69 167.5q0 215 -279 215
q-38 0 -79 -2.5t-62 -5.5zM573 195q320 0 320 215q0 112 -71 166.5t-249 54.5q-45 0 -86 -1.5t-59 -3.5l-18 -1v-420q44 -10 163 -10z" />
    <glyph glyph-name="C" unicode="C" horiz-adv-x="1228" 
d="M61 737q0 158 42.5 287t114 215t169 145t203 85t219.5 26q91 0 175.5 -12.5t123.5 -25.5l39 -13v-215q-17 6 -48 14.5t-119.5 22.5t-170.5 14q-135 0 -239 -72t-159 -195t-55 -276t55 -276t159 -194.5t239 -71.5q82 0 166.5 12.5t128.5 25.5l43 13v-215
q-15 -6 -42.5 -14.5t-116 -22.5t-179.5 -14q-94 0 -183.5 18.5t-174 56.5t-155 100t-123.5 144t-82.5 194t-29.5 244z" />
    <glyph glyph-name="D" unicode="D" horiz-adv-x="1433" 
d="M123 1475q270 20 481 20q81 0 158.5 -12t154.5 -39.5t143.5 -68.5t124.5 -102t99 -137.5t64.5 -178.5t23.5 -220q0 -164 -45 -295.5t-119 -216.5t-175.5 -141.5t-207.5 -80t-221 -23.5q-94 0 -214 5t-194 10l-73 5v1475zM410 1270v-1065q112 -10 194 -10
q216 0 344.5 137.5t128.5 404.5q0 135 -35 240t-98.5 170.5t-149 99t-190.5 33.5q-36 0 -84.5 -2.5t-79.5 -5.5z" />
    <glyph glyph-name="E" unicode="E" horiz-adv-x="1126" 
d="M410 215h634v-215h-921v1475h901v-215h-614v-386h563v-215h-563v-444z" />
    <glyph glyph-name="F" unicode="F" horiz-adv-x="1054" 
d="M410 0h-287v1475h891v-226h-604v-420h542v-225h-542v-604z" />
    <glyph glyph-name="G" unicode="G" horiz-adv-x="1413" 
d="M737 778h574v-778q-250 -20 -461 -20q-81 0 -160 12.5t-158 40t-148 69t-128.5 103t-102.5 137.5t-67.5 177t-24.5 218q0 162 47 293t124 216t181 142.5t213 82t224 24.5q94 0 199 -10.5t163 -20.5l58 -10v-215q-193 41 -420 41q-104 0 -193.5 -36t-156.5 -103
t-105.5 -171t-38.5 -233q0 -255 139.5 -398.5t354.5 -143.5q36 0 79.5 2.5t68.5 4.5l26 3v358h-287v215z" />
    <glyph glyph-name="H" unicode="H" horiz-adv-x="1515" 
d="M1106 1475h287v-1475h-287v659h-696v-659h-287v1475h287v-601h696v601z" />
    <glyph glyph-name="I" unicode="I" horiz-adv-x="532" 
d="M410 0h-287v1475h287v-1475z" />
    <glyph glyph-name="J" unicode="J" horiz-adv-x="1054" 
d="M952 553q0 -289 -160 -431t-505 -142q-57 0 -124 5t-105 10l-38 5v215q134 -20 267 -20q206 0 292.5 88t86.5 270v922h286v-922z" />
    <glyph glyph-name="K" unicode="K" horiz-adv-x="1363" 
d="M1286 1475l-565 -672l622 -803h-352l-452 584l-129 -154v-430h-287v1475h287v-662l557 662h319z" />
    <glyph glyph-name="L" unicode="L" horiz-adv-x="1126" 
d="M410 215h696v-215h-983v1475h287v-1260z" />
    <glyph glyph-name="M" unicode="M" horiz-adv-x="1843" 
d="M1057 0h-271l-305 737q-65 157 -80 215h-2q11 -117 11 -215v-737h-287v1475h278l351 -820q125 -287 168 -434h2q46 149 170 434l350 820h278v-1475h-286v737q0 44 2.5 97.5t5.5 85.5l2 32h-2q-20 -71 -80 -215z" />
    <glyph glyph-name="N" unicode="N" horiz-adv-x="1542" 
d="M1128 0l-542 819q-136 217 -185 322h-2q11 -132 11 -322v-819h-287v1475h291l542 -820q138 -220 185 -321h2q-10 131 -10 321v820h286v-1475h-291z" />
    <glyph glyph-name="O" unicode="O" horiz-adv-x="1576" 
d="M788 1495q134 0 251 -39.5t203.5 -110t148.5 -165.5t93.5 -208t31.5 -235q0 -153 -50 -290.5t-141.5 -241t-230.5 -164.5t-306 -61t-305.5 61t-230 164.5t-141.5 241t-50 290.5t50 290.5t141.5 241.5t230 165t305.5 61zM788 195q187 0 310 148t123 394t-123 394.5
t-310 148.5t-309.5 -148.5t-122.5 -394.5t122.5 -394t309.5 -148z" />
    <glyph glyph-name="P" unicode="P" horiz-adv-x="1187" 
d="M594 1280q-38 0 -84 -2t-73 -4l-27 -2v-518q106 -6 184 -6q109 0 183.5 69.5t74.5 196.5t-74.5 196.5t-183.5 69.5zM594 1495q253 0 403 -130t150 -351t-150.5 -351.5t-402.5 -130.5q-45 0 -91 2t-69 4l-24 1v-539h-287v1475q238 20 471 20z" />
    <glyph glyph-name="Q" unicode="Q" horiz-adv-x="1576" 
d="M1516 737q0 -195 -79.5 -362t-224.5 -269l125 -290h-303l-78 180q-85 -16 -168 -16q-167 0 -305.5 61t-230 164.5t-141.5 241t-50 290.5t50 290.5t141.5 241.5t230 165t305.5 61q134 0 251 -39.5t203.5 -110t148.5 -165.5t93.5 -208t31.5 -235zM788 195q187 0 310 148
t123 394t-123 394.5t-310 148.5t-309.5 -148.5t-122.5 -394.5t122.5 -394t309.5 -148z" />
    <glyph glyph-name="R" unicode="R" horiz-adv-x="1263" 
d="M410 1270v-451q106 -4 184 -4q146 0 212 60t66 190q0 93 -72 154t-206 61q-38 0 -84 -2.5t-73 -5.5zM123 0v1475q299 20 471 20q271 0 422 -116.5t151 -313.5q0 -74 -23 -136t-61 -103.5t-81.5 -67.5t-90.5 -37q40 -11 67.5 -27.5t55 -49t47.5 -88t35 -136.5
q25 -136 54.5 -241t45.5 -142l17 -37h-299q-5 6 -14 25t-36 125.5t-53 269.5q-17 101 -71.5 140.5t-165.5 39.5l-184 -6v-594h-287z" />
    <glyph glyph-name="S" unicode="S" horiz-adv-x="1064" 
d="M72 1116q0 174 142 276.5t384 102.5q86 0 172 -15.5t129 -30.5l43 -15v-215q-14 7 -40.5 17t-116 27t-187.5 17q-115 0 -173 -43t-58 -121q0 -38 16 -71.5t51.5 -66.5t72.5 -59t97 -63q97 -59 160 -105t119.5 -105t83 -127t26.5 -150q0 -103 -40.5 -179.5t-113.5 -121.5
t-166.5 -66.5t-207.5 -21.5q-95 0 -190.5 15t-144.5 31l-48 15v215q20 -7 55 -17t135.5 -27t192.5 -17q117 0 175 45t58 129q0 62 -47 112t-190 137q-90 54 -156.5 105.5t-121.5 112.5t-83 131.5t-28 148.5z" />
    <glyph glyph-name="T" unicode="T" horiz-adv-x="1249" 
d="M1219 1475v-215h-451v-1260h-287v1260h-450v215h1188z" />
    <glyph glyph-name="U" unicode="U" horiz-adv-x="1392" 
d="M1290 512q0 -242 -157 -387t-437 -145t-437 145t-157 387v963h287v-963q0 -87 27.5 -151.5t74 -99t97.5 -50.5t108 -16t108.5 16t98 50.5t74 99t27.5 151.5v963h286v-963z" />
    <glyph glyph-name="V" unicode="V" horiz-adv-x="1400" 
d="M848 0h-295l-533 1475h295l281 -820q66 -200 102 -348h2q39 160 105 348l280 820h295z" />
    <glyph glyph-name="W" unicode="W" horiz-adv-x="2015" 
d="M1135 1475l221 -820q3 -12 16 -63.5t19 -78t14 -67.5t12 -71h2q12 89 66 280l221 820h289l-422 -1475h-273l-225 819q-51 180 -67 289h-2q-17 -116 -66 -289l-225 -819h-273l-422 1475h289l221 -820q54 -191 64 -280h2q7 51 63 280l222 820h254z" />
    <glyph glyph-name="X" unicode="X" 
d="M645 569h-2q-26 -94 -123 -262l-172 -307h-328l461 754l-440 721h328l206 -369q52 -93 68 -166h2q18 73 70 166l207 369h327l-440 -721l461 -754h-328l-172 307q-97 168 -125 262z" />
    <glyph glyph-name="Y" unicode="Y" horiz-adv-x="1236" 
d="M1217 1475l-455 -867v-608h-287v608l-455 867h316l178 -369q82 -169 102 -254h2q25 94 103 254l180 369h316z" />
    <glyph glyph-name="Z" unicode="Z" horiz-adv-x="1228" 
d="M1116 1231l-704 -1016h725v-215h-1045v244l705 1016h-684v215h1003v-244z" />
    <glyph glyph-name="bracketleft" unicode="[" horiz-adv-x="614" 
d="M532 1382h-225v-1290h225v-153h-409v1597h409v-154z" />
    <glyph glyph-name="backslash" unicode="\" horiz-adv-x="882" 
d="M156 1536l768 -1597h-199l-766 1597h197z" />
    <glyph glyph-name="bracketright" unicode="]" horiz-adv-x="614" 
d="M82 1382v154h410v-1597h-410v153h225v1290h-225z" />
    <glyph glyph-name="asciicircum" unicode="^" horiz-adv-x="790" 
d="M395 1382h-2q-14 -59 -78 -174l-79 -143h-205l262 471h205l262 -471h-205l-80 143q-64 115 -80 174z" />
    <glyph glyph-name="underscore" unicode="_" horiz-adv-x="1146" 
d="M1024 -291h-901v154h901v-154z" />
    <glyph glyph-name="grave" unicode="`" horiz-adv-x="655" 
d="M31 1536q94 20 198 20q48 0 76.5 -13.5t50.5 -47.5q53 -82 120 -176.5t108 -148.5l41 -54l-185 -31q-8 7 -22.5 19.5t-59.5 56.5t-90.5 92.5t-111 125.5t-125.5 157z" />
    <glyph glyph-name="a" unicode="a" horiz-adv-x="1085" 
d="M502 1085q121 0 213 -36.5t147.5 -101.5t83 -148.5t27.5 -184.5v-614h-266q-21 72 -21 154q-76 -174 -276 -174q-158 0 -253.5 88.5t-95.5 269.5q0 109 58.5 194.5t154 130t207.5 44.5q51 0 102.5 -10.5t76.5 -20.5l26 -10q0 92 -50.5 148t-154.5 56q-87 0 -171.5 -15
t-125.5 -31l-41 -15v215q20 7 54.5 17t129 27t175.5 17zM686 451v26q-76 15 -164 15q-71 0 -118.5 -38t-47.5 -116q0 -67 39.5 -105t96.5 -38q83 0 138.5 67t55.5 189z" />
    <glyph glyph-name="b" unicode="b" 
d="M737 1085q131 0 243 -69t180.5 -197t68.5 -287q0 -120 -40 -224t-107.5 -175.5t-157 -112t-187.5 -40.5q-114 0 -200 49.5t-127 124.5q0 -36 -5 -74.5t-11 -59.5l-5 -20h-266v1536h287v-625q42 74 128 124t199 50zM655 195q130 0 204.5 90.5t74.5 246.5t-74.5 247
t-204.5 91q-101 0 -173 -86t-72 -211v-81q0 -125 72 -211t173 -86z" />
    <glyph glyph-name="c" unicode="c" horiz-adv-x="1013" 
d="M61 532q0 133 45 239.5t125 174.5t185.5 103.5t228.5 35.5q56 0 127.5 -10.5t115.5 -20.5l44 -10v-215q-137 41 -246 41q-157 0 -243.5 -95.5t-86.5 -242.5t86.5 -242t243.5 -95q48 0 109.5 10.5t98.5 20.5l38 10v-216q-162 -40 -287 -40q-124 0 -229 35.5t-185 103
t-125 174t-45 239.5z" />
    <glyph glyph-name="d" unicode="d" 
d="M61 532q0 159 68.5 287t180.5 197t243 69q113 0 198.5 -50t129.5 -124v625h286v-1536h-266q-20 72 -20 154q-43 -75 -129 -124.5t-199 -49.5q-98 0 -187.5 40.5t-157 112t-107.5 175.5t-40 224zM356 532q0 -156 74.5 -246.5t204.5 -90.5q101 0 173.5 86t72.5 211v81
q0 125 -72.5 211t-173.5 86q-130 0 -204.5 -91t-74.5 -247z" />
    <glyph glyph-name="e" unicode="e" horiz-adv-x="1157" 
d="M338 461q10 -139 84 -202.5t213 -63.5q64 0 146 12.5t132 25.5l50 13v-215q-15 -6 -43 -14.5t-119 -22.5t-187 -14q-88 0 -167 19.5t-150.5 62t-123 106t-82 157t-30.5 207.5q0 122 42 227t112 175.5t163 110.5t195 40q226 0 359 -141.5t133 -370.5l-6 -112h-721z
M573 870q-105 0 -156.5 -56.5t-70.5 -158.5h449q0 105 -60 160t-162 55z" />
    <glyph glyph-name="f" unicode="f" horiz-adv-x="839" 
d="M225 1116q0 198 102.5 319t286.5 121q63 0 129.5 -5t102.5 -10l35 -5v-205q-82 21 -164 21q-205 0 -205 -236v-51h246v-215h-246v-850h-287v850h-205v215h205v51z" />
    <glyph glyph-name="g" unicode="g" 
d="M901 1065h266v-932q0 -301 -154.5 -463t-418.5 -162q-108 0 -210.5 15.5t-151.5 30.5l-48 16v235q22 -7 59.5 -17t140 -27t189.5 -17q148 0 228 91t80 247v72q-43 -75 -129 -124.5t-199 -49.5q-98 0 -187.5 40.5t-157 112t-107.5 175.5t-40 224q0 159 68.5 287t180.5 197
t243 69q113 0 198.5 -50t129.5 -124q0 36 5 74.5t10 58.5zM881 492v81q0 125 -72.5 211t-173.5 86q-130 0 -204.5 -91t-74.5 -247t74.5 -246.5t204.5 -90.5q101 0 173.5 86t72.5 211z" />
    <glyph glyph-name="h" unicode="h" horiz-adv-x="1259" 
d="M410 911q41 86 119 130t167 44q451 0 451 -491v-594h-287v594q0 137 -53 206.5t-152 69.5t-172 -82t-73 -215v-573h-287v1536h287v-625z" />
    <glyph glyph-name="i" unicode="i" horiz-adv-x="532" 
d="M410 0h-287v1065h287v-1065zM430 1321q0 -67 -48 -115.5t-116 -48.5t-116 48.5t-48 115.5t48 115.5t116 48.5t116 -48.5t48 -115.5z" />
    <glyph glyph-name="j" unicode="j" horiz-adv-x="634" 
d="M512 1065v-1065q0 -114 -26.5 -200t-73.5 -141.5t-118 -89.5t-151.5 -47.5t-183.5 -13.5v246q81 0 133.5 14.5t81.5 47.5t40 76t11 108v1065h287zM532 1331q0 -68 -48 -116t-115 -48t-115.5 48.5t-48.5 115.5t48.5 115.5t115.5 48.5t115 -48t48 -116z" />
    <glyph glyph-name="k" unicode="k" horiz-adv-x="1216" 
d="M748 608l448 -608h-346l-295 399l-145 -157v-242h-287v1536h287v-932l426 461h335z" />
    <glyph glyph-name="l" unicode="l" horiz-adv-x="532" 
d="M410 0h-287v1536h287v-1536z" />
    <glyph glyph-name="m" unicode="m" horiz-adv-x="1832" 
d="M1321 1085q207 0 303 -108.5t96 -321.5v-655h-286v655q0 113 -38 164t-116 51q-95 0 -155 -80.5t-60 -216.5v-573h-287v655q0 113 -37.5 164t-115.5 51q-95 0 -155 -80.5t-60 -216.5v-573h-287v1065h266q21 -72 21 -154q33 75 101 124.5t155 49.5q287 0 366 -215
q44 99 117 157t172 58z" />
    <glyph glyph-name="n" unicode="n" horiz-adv-x="1259" 
d="M410 911q41 86 119 130t167 44q451 0 451 -491v-594h-287v594q0 137 -53 206.5t-152 69.5t-172 -82t-73 -215v-573h-287v1065h266q21 -72 21 -154z" />
    <glyph glyph-name="o" unicode="o" horiz-adv-x="1249" 
d="M625 1085q165 0 294.5 -74.5t199 -200.5t69.5 -278t-69.5 -277.5t-199 -200t-294.5 -74.5t-295 74.5t-199.5 200t-69.5 277.5t69.5 278t199.5 200.5t295 74.5zM625 195q118 0 193 88t75 249t-75 249.5t-193 88.5t-193.5 -88.5t-75.5 -249.5q0 -160 75 -248.5t194 -88.5z
" />
    <glyph glyph-name="p" unicode="p" 
d="M1229 532q0 -120 -40 -224t-107.5 -175.5t-157 -112t-187.5 -40.5q-114 0 -200 49.5t-127 124.5v-625h-287v1536h266q21 -72 21 -154q42 74 128 124t199 50q131 0 243 -69t180.5 -197t68.5 -287zM934 532q0 156 -74.5 247t-204.5 91q-101 0 -173 -86t-72 -211v-81
q0 -125 72 -211t173 -86q130 0 204.5 90.5t74.5 246.5z" />
    <glyph glyph-name="q" unicode="q" 
d="M553 -20q-98 0 -187.5 40.5t-157 112t-107.5 175.5t-40 224q0 159 68.5 287t180.5 197t243 69q113 0 198.5 -50t129.5 -124q0 36 5 74.5t10 58.5l5 21h266v-1536h-286v625q-43 -75 -129 -124.5t-199 -49.5zM635 870q-130 0 -204.5 -91t-74.5 -247t74.5 -246.5
t204.5 -90.5q101 0 173.5 86t72.5 211v81q0 125 -72.5 211t-173.5 86z" />
    <glyph glyph-name="r" unicode="r" horiz-adv-x="798" 
d="M410 860q69 225 368 225v-245q-82 0 -140.5 -9t-100 -31t-66 -51.5t-38.5 -79.5t-18.5 -103.5t-4.5 -135.5v-430h-287v1065h266q21 -60 21 -205z" />
    <glyph glyph-name="s" unicode="s" horiz-adv-x="880" 
d="M72 778q0 57 27 110.5t79.5 98t141.5 71.5t202 27q62 0 118.5 -7.5t81.5 -15.5l26 -7v-217q-111 32 -246 32t-135 -92q0 -35 16.5 -58t54.5 -40q82 -39 136.5 -69t102.5 -66t75 -73t42 -83t15 -102q0 -146 -100.5 -226.5t-309.5 -80.5q-84 0 -163 10t-116 20l-38 10v216
q143 -41 317 -41q55 0 85 20.5t30 50.5q0 40 -45.5 76.5t-149.5 83.5q-88 42 -138.5 83.5t-79.5 107.5t-29 161z" />
    <glyph glyph-name="t" unicode="t" horiz-adv-x="880" 
d="M799 1065v-215h-287v-502q0 -90 33.5 -121.5t109.5 -31.5q28 0 64 2.5t58 4.5l22 3v-215q-105 -10 -246 -10q-163 0 -245.5 69t-82.5 217v584h-205v215h205v266h287v-266h287z" />
    <glyph glyph-name="u" unicode="u" horiz-adv-x="1259" 
d="M850 154q-41 -86 -119.5 -130t-167.5 -44q-450 0 -450 491v594h286v-594q0 -137 53 -206.5t152 -69.5t172.5 82.5t73.5 214.5v573h287v-1065h-267q-20 72 -20 154z" />
    <glyph glyph-name="v" unicode="v" horiz-adv-x="1159" 
d="M729 0h-299l-410 1065h299l203 -573q3 -10 12.5 -39t15 -46.5t12.5 -42t11 -44t5 -35.5h2q1 19 8.5 48.5t13.5 50t19 59.5t16 49l203 573h299z" />
    <glyph glyph-name="w" unicode="w" horiz-adv-x="1695" 
d="M848 752h-2q-7 -74 -43 -179l-185 -573h-288l-310 1065h289l154 -573q31 -113 35 -179h2q6 53 41 179l170 552h274l168 -552q35 -111 43 -179h2q4 66 35 179l153 573h289l-311 -1065h-287l-186 573q-36 122 -43 179z" />
    <glyph glyph-name="x" unicode="x" horiz-adv-x="1159" 
d="M580 393h-2q-1 -9 -2.5 -17t-4 -16.5t-4 -14t-6 -14.5t-6 -13t-7 -14t-7 -12t-8 -13.5t-7.5 -12.5l-166 -266h-340l390 555l-359 510h340l137 -225q46 -74 50 -125h2q6 52 51 125l137 225h340l-358 -510l389 -555h-340l-166 266q-17 29 -23.5 40.5t-16 36.5t-13.5 50z
" />
    <glyph glyph-name="y" unicode="y" horiz-adv-x="1159" 
d="M1139 1065l-412 -1067q-41 -108 -78.5 -183.5t-81 -131.5t-87.5 -89t-105.5 -53t-127 -26.5t-159.5 -6.5v246q83 0 130 7.5t87.5 35.5t66.5 73.5t58 129.5l-410 1065h299l203 -573q3 -10 12.5 -39t15 -46.5t12.5 -42t11 -44t5 -35.5h2q1 19 8.5 48.5t13.5 50t19 59.5
t16 49l203 573h299z" />
    <glyph glyph-name="z" unicode="z" horiz-adv-x="1085" 
d="M451 215h542v-215h-901v211l522 639h-501v215h860v-219z" />
    <glyph glyph-name="braceleft" unicode="{" horiz-adv-x="686" 
d="M31 834q6 0 16.5 1.5t36 9.5t45 21.5t34 42t11.5 66.5l-16 213q-7 79 13.5 140t60 99.5t99.5 63.5t126.5 35t146.5 10v-154q-136 0 -203 -52.5t-59 -141.5l16 -213q4 -47 -7 -89t-30 -68t-38 -45.5t-33 -27.5l-14 -8q6 -3 15 -8.5t31.5 -26.5t39 -46t28.5 -67t8 -89
l-16 -213q-8 -90 59 -142.5t203 -52.5v-153q-80 0 -146.5 10t-126.5 35t-99.5 63.5t-60 99.5t-13.5 140l16 213q3 38 -11 66t-35.5 41.5t-43.5 21.5t-38 9l-15 1v195z" />
    <glyph glyph-name="bar" unicode="|" horiz-adv-x="430" 
d="M307 -471h-184v2007h184v-2007z" />
    <glyph glyph-name="braceright" unicode="}" horiz-adv-x="686" 
d="M655 834v-195q-6 0 -16.5 -1t-36 -9t-45 -21.5t-34 -41.5t-11.5 -66l16 -213q7 -79 -13.5 -140t-60 -99.5t-99.5 -63.5t-126.5 -35t-146.5 -10v153q135 0 202.5 52.5t59.5 142.5l-16 213q-4 47 7.5 88.5t30 67.5t38 45.5t33.5 27.5l14 8q-6 3 -15 8.5t-32 27t-39.5 46.5
t-28.5 67t-8 89l16 213q8 89 -59.5 141.5t-202.5 52.5v154q80 0 146.5 -10t126.5 -35t99.5 -63.5t60 -99.5t13.5 -140l-16 -213q-3 -38 11 -66.5t35.5 -42t43.5 -21.5t38 -9z" />
    <glyph glyph-name="asciitilde" unicode="~" horiz-adv-x="942" 
d="M758 1495h153q0 -39 -4.5 -75t-21 -80.5t-43 -76t-75 -53.5t-112.5 -22q-48 0 -184 55q-4 2 -36.5 16.5t-48 20.5t-45 13t-54.5 7q-51 0 -77 -39t-26 -83h-153q0 39 4.5 75t21 80.5t43 76t75 53.5t112.5 22q52 0 184 -58q10 -4 37.5 -16t46 -19t47 -13.5t53.5 -6.5
q51 0 77 39.5t26 83.5z" />
    <glyph glyph-name="quoteleft" unicode="&#x2018;" horiz-adv-x="409" 
d="M31 1096q22 90 57.5 197.5t60.5 170.5l25 62l205 30q-37 -252 -51 -430q-3 -37 -21 -54t-61 -17q-46 0 -100 10.5t-84 20.5z" />
    <glyph glyph-name="quoteright" unicode="&#x2019;" horiz-adv-x="409" 
d="M379 1516q-22 -90 -57.5 -198t-60.5 -170l-25 -63l-205 -30q37 252 51 430q3 37 21 54t61 17q46 0 100 -10t84 -20z" />
    <glyph glyph-name="quotedblleft" unicode="&#x201c;" horiz-adv-x="737" 
d="M358 1096q22 90 58 197.5t61 170.5l25 62l205 30q-38 -252 -52 -430q-3 -37 -21 -54t-61 -17q-46 0 -100 10.5t-85 20.5zM31 1096q22 90 57.5 197.5t60.5 170.5l25 62l205 30q-37 -252 -51 -430q-3 -37 -21 -54t-61 -17q-46 0 -100 10.5t-84 20.5z" />
    <glyph glyph-name="quotedblright" unicode="&#x201d;" horiz-adv-x="737" 
d="M379 1516q-22 -90 -57.5 -198t-60.5 -170l-25 -63l-205 -30q37 252 51 430q3 37 21 54t61 17q46 0 100 -10t84 -20zM707 1516q-22 -90 -58 -198t-61 -170l-25 -63l-205 -30q38 252 52 430q3 37 21 54t61 17q46 0 100 -10t84 -20z" />
  </font>
</defs>
</svg>
