<?xml version="1.0" standalone="no"?>
<!DOCTYPE svg PUBLIC "-//W3C//DTD SVG 1.1//EN" "http://www.w3.org/Graphics/SVG/1.1/DTD/svg11.dtd" >
<svg xmlns="http://www.w3.org/2000/svg" xmlns:xlink="http://www.w3.org/1999/xlink" version="1.1">
<metadata>
Created by FontForge 20170731 at Sun Mar  5 18:44:42 2023
 By Aleksey,,,
Copyright (C) 2004-2008 dot colon. All rights reserved.
</metadata>
<defs>
<font id="Vegur-Regular" horiz-adv-x="1208" >
  <font-face 
    font-family="Vegur"
    font-weight="400"
    font-stretch="normal"
    units-per-em="2048"
    panose-1="0 0 0 0 0 0 0 0 0 0"
    ascent="1536"
    descent="-512"
    x-height="1065"
    cap-height="1475"
    bbox="-41 -492 1892 1556"
    underline-thickness="102"
    underline-position="-307"
    unicode-range="U+0020-FB02"
  />
<missing-glyph horiz-adv-x="1024" 
 />
    <glyph glyph-name=".notdef" horiz-adv-x="1024" 
 />
    <glyph glyph-name=".null" horiz-adv-x="0" 
 />
    <glyph glyph-name="nonmarkingreturn" horiz-adv-x="682" 
 />
    <glyph glyph-name="space" unicode=" " horiz-adv-x="471" 
 />
    <glyph glyph-name="exclam" unicode="!" horiz-adv-x="450" 
d="M328 82q0 -43 -30 -72.5t-73 -29.5t-72.5 29.5t-29.5 72.5t29.5 72.5t72.5 29.5t73 -29.5t30 -72.5zM307 328h-164l-20 1147h205z" />
    <glyph glyph-name="quotedbl" unicode="&#x22;" horiz-adv-x="563" 
d="M276 1536q-22 -90 -55 -200t-55 -175l-23 -65l-102 -21q31 252 41 430q1 26 20 38.5t41 12.5q36 0 69 -5t48 -10zM522 1536q-22 -90 -55 -200t-55 -175l-23 -65l-102 -21q31 252 41 430q1 26 20 38.5t41 12.5q36 0 69 -5t48 -10z" />
    <glyph glyph-name="numbersign" unicode="#" horiz-adv-x="1269" 
d="M1167 901h-213l-71 -328h243v-92h-262l-104 -481h-123l102 481h-319l-105 -481h-122l102 481h-193v92h213l70 328h-242v92h263l104 482h123l-105 -482h322l104 482h123l-104 -482h194v-92zM760 573l69 328h-319l-72 -328h322z" />
    <glyph glyph-name="dollar" unicode="$" horiz-adv-x="921" 
d="M840 461q0 -123 -87.5 -220.5t-230.5 -127.5v-174h-123v174h-174v133h174q130 0 201.5 56t71.5 159q0 26 -7.5 49t-15.5 39t-31 34.5t-34.5 27.5t-48 26t-48.5 22.5t-57 24.5q-90 37 -151 72t-107.5 78.5t-68 97.5t-21.5 123q0 118 87 200.5t230 106.5v174h123v-174h164
v-133h-164q-135 0 -203.5 -47.5t-68.5 -126.5q0 -72 53 -119t189 -105q102 -43 162 -76t105.5 -76t63 -94.5t17.5 -123.5z" />
    <glyph glyph-name="percent" unicode="%" horiz-adv-x="1720" 
d="M1229 1536h137l-922 -1597h-137zM410 1495q135 0 231 -108.5t96 -260.5t-96 -260t-231 -108t-231.5 108t-96.5 260t96.5 260.5t231.5 108.5zM410 860q92 0 148 75.5t56 190.5t-56 191t-148 76t-148.5 -76t-56.5 -191t56.5 -190.5t148.5 -75.5zM1311 717q135 0 231 -108.5
t96 -260.5t-96 -260t-231 -108t-231.5 108t-96.5 260t96.5 260.5t231.5 108.5zM1311 82q92 0 148.5 75.5t56.5 190.5t-56.5 190.5t-148.5 75.5t-148.5 -75.5t-56.5 -190.5t56.5 -190.5t148.5 -75.5z" />
    <glyph glyph-name="ampersand" unicode="&#x26;" horiz-adv-x="1368" 
d="M1327 0l-2 -2h-225q-46 49 -115 121q-180 -139 -412 -139q-214 0 -352.5 116.5t-138.5 292.5q0 84 25 153t74 123.5t97.5 91.5t118.5 79q-151 225 -151 338q0 83 28 147t75.5 101t104 55t119.5 18q64 0 121 -18t104 -53.5t75 -96.5t28 -139q0 -46 -11 -87t-35 -76.5
t-48.5 -64t-65 -60t-71 -52.5t-78.5 -51q147 -205 389 -457q104 165 104 397h164q0 -309 -157 -510q60 -60 119 -116.5t87 -83.5zM573 1362q-64 0 -111.5 -44.5t-47.5 -143.5q0 -96 102 -267q106 65 161.5 128.5t55.5 152.5q0 174 -160 174zM573 113q113 0 179 27t135 87
q-262 291 -412 496q-107 -73 -166 -150.5t-59 -183.5q0 -121 97.5 -198.5t225.5 -77.5z" />
    <glyph glyph-name="quotesingle" unicode="'" horiz-adv-x="317" 
d="M276 1536q-22 -90 -55 -200t-55 -175l-23 -65l-102 -21q31 252 41 430q1 26 20 38.5t41 12.5q36 0 69 -5t48 -10z" />
    <glyph glyph-name="parenleft" unicode="(" horiz-adv-x="450" 
d="M266 1475h103q-7 -14 -17.5 -40.5t-38 -108.5t-48.5 -164.5t-38.5 -200t-17.5 -224.5t16.5 -222.5t40 -203.5t47 -160.5t39.5 -111.5l17 -39h-103q-7 13 -19.5 37.5t-44.5 103t-56 160.5t-44 201.5t-20 234.5t19 233t46 205t54 157.5t46 106.5z" />
    <glyph glyph-name="parenright" unicode=")" horiz-adv-x="450" 
d="M184 1475q8 -13 20 -37.5t44 -103.5t56.5 -160.5t44.5 -201.5t20 -235t-19 -233t-46.5 -204.5t-54.5 -157t-46 -106.5l-19 -36h-102q7 14 17.5 40.5t38 108t48.5 164t38.5 200t17.5 224.5t-16.5 222.5t-40 204t-47 161t-40.5 111.5l-16 39h102z" />
    <glyph glyph-name="asterisk" unicode="*" horiz-adv-x="737" 
d="M449 1186l159 -201l-98 -72l-141 215l-142 -215l-98 72l160 201l-248 67l39 117l239 -90l-12 256h123l-12 -256l239 90l39 -117z" />
    <glyph glyph-name="plus" unicode="+" horiz-adv-x="1290" 
d="M707 584h440v-103h-440v-461h-123v461h-441v103h441v460h123v-460z" />
    <glyph glyph-name="comma" unicode="," horiz-adv-x="358" 
d="M276 143q-22 -90 -55 -200t-55 -175l-23 -65l-102 -20q31 252 41 430q1 26 20 38.5t41 12.5q36 0 69 -5t48 -11z" />
    <glyph glyph-name="hyphen" unicode="-" horiz-adv-x="901" 
d="M758 584v-103h-615v103h615z" />
    <glyph glyph-name="period" unicode="." horiz-adv-x="368" 
d="M287 82q0 -43 -30 -72.5t-73 -29.5t-72.5 29.5t-29.5 72.5t29.5 72.5t72.5 29.5t73 -29.5t30 -72.5z" />
    <glyph glyph-name="slash" unicode="/" horiz-adv-x="819" 
d="M727 1536h133l-766 -1597h-135z" />
    <glyph glyph-name="zero" unicode="0" 
d="M604 1495q121 0 221 -59.5t165 -163t100.5 -241t35.5 -294.5q0 -211 -60 -381t-180.5 -273t-281.5 -103t-281.5 103t-180.5 273t-60 381q0 157 35.5 294.5t100.5 241t165 163t221 59.5zM604 113q102 0 183.5 84t126 226.5t44.5 313.5t-44.5 313.5t-126 227t-183.5 84.5
t-183.5 -84.5t-126 -227t-44.5 -313.5t44.5 -313.5t126 -226.5t183.5 -84z" />
    <glyph glyph-name="one" unicode="1" horiz-adv-x="798" 
d="M471 1475h82v-1475h-164v1249l-205 -92v154z" />
    <glyph glyph-name="two" unicode="2" horiz-adv-x="1034" 
d="M309 133h633v-133h-850v133l418 449q140 152 197 259t57 203q0 154 -76.5 236t-247.5 82q-72 0 -143.5 -15.5t-106.5 -30.5l-36 -16v134q12 7 34 17t96.5 27t155.5 17q255 0 373.5 -118.5t118.5 -332.5q0 -263 -305 -571z" />
    <glyph glyph-name="three" unicode="3" horiz-adv-x="972" 
d="M399 -20q-81 0 -157.5 12.5t-113.5 25.5l-36 13v133q12 -6 35.5 -14.5t103.5 -22.5t168 -14q136 0 230 79t94 207q0 147 -111 222t-315 75v133q183 0 289 86t106 222q0 97 -67 161t-185 64q-88 0 -162.5 -13t-104.5 -25l-30 -13v133q13 6 37 14.5t101.5 22.5t158.5 14
q197 0 308.5 -102.5t111.5 -255.5q0 -71 -21.5 -129.5t-61.5 -100t-76 -67t-87 -52.5q145 -72 211 -160.5t66 -228.5q0 -188 -140.5 -303.5t-351.5 -115.5z" />
    <glyph glyph-name="four" unicode="4" horiz-adv-x="1095" 
d="M891 481h164v-133h-164v-348h-164v348h-666v129l662 998h168v-994zM727 983q0 49 2.5 119t4.5 115l3 45h-2q-37 -81 -166 -279l-333 -502h491v502z" />
    <glyph glyph-name="five" unicode="5" horiz-adv-x="1034" 
d="M420 942q153 0 273 -65t184.5 -174t64.5 -242t-64.5 -242t-184.5 -174t-273 -65q-76 0 -155.5 10t-120.5 20l-42 10v134q146 -41 318 -41q159 0 256.5 92.5t97.5 255.5t-97.5 255.5t-256.5 92.5q-76 0 -150.5 -10.5t-110.5 -20.5l-36 -10l82 707h676v-134h-547l-47 -409
q68 10 133 10z" />
    <glyph glyph-name="six" unicode="6" horiz-adv-x="1110" 
d="M557 -20q-221 0 -348 193.5t-127 522.5q0 151 21.5 273.5t62 209t95 148.5t125.5 98.5t147.5 53t166.5 16.5q64 0 110.5 -5t60.5 -10l14 -5v-134q-44 21 -185 21q-92 0 -172 -31.5t-141 -90.5t-96 -151.5t-35 -207.5q4 4 12 11t36.5 24.5t60.5 31t84 24.5t108 11
q92 0 178 -38t150.5 -103.5t103.5 -160t39 -200.5t-39 -200.5t-104 -159.5t-150.5 -103t-177.5 -38zM557 850q-144 0 -222.5 -57t-78.5 -168q0 -226 80 -369t221 -143q130 0 216.5 107t86.5 261t-86.5 261.5t-216.5 107.5z" />
    <glyph glyph-name="seven" unicode="7" horiz-adv-x="983" 
d="M922 1475v-134l-529 -1341h-172l522 1341h-702v134h881z" />
    <glyph glyph-name="eight" unicode="8" horiz-adv-x="1105" 
d="M719 774q305 -150 305 -393q0 -95 -31.5 -168.5t-79 -116.5t-113 -70t-125 -36.5t-122.5 -9.5t-122.5 9.5t-125 36.5t-113 70t-79 116.5t-31.5 168.5q0 243 305 393q-264 122 -264 356q0 47 12.5 94.5t44 97t79 87.5t123.5 62t171 24t171 -24t123.5 -62t79 -87.5t44 -97
t12.5 -94.5q0 -234 -264 -356zM291 1130q0 -54 14.5 -99.5t37.5 -75t51 -52.5t56 -35.5t51 -20.5t37 -11l15 -2q5 1 14.5 2.5t37 10t52 20.5t55 35.5t52 53t36.5 75t15 99.5q0 70 -41 124.5t-99.5 81t-121.5 26.5t-121.5 -26.5t-99.5 -81t-41 -124.5zM553 113q54 0 105.5 16
t97 47t73 84.5t27.5 120.5q0 60 -31 116t-76 93.5t-89.5 66t-75.5 41.5l-31 13q-6 -2 -17 -7t-42.5 -21t-60 -34t-63.5 -47.5t-60.5 -61t-42.5 -73.5t-17 -86q0 -67 27.5 -120.5t73 -84.5t97 -47t105.5 -16z" />
    <glyph glyph-name="nine" unicode="9" horiz-adv-x="1110" 
d="M553 1495q221 0 348 -194t127 -523q0 -181 -31.5 -320t-86 -228.5t-134 -146.5t-169 -80t-197.5 -23q-64 0 -110.5 5t-60.5 10l-14 5v133q44 -20 185 -20q92 0 172 31.5t141 90.5t96 151.5t35 207.5q-4 -4 -12 -11t-36.5 -24.5t-60.5 -31t-84 -24.5t-108 -11
q-92 0 -178 38t-150.5 103t-103.5 159.5t-39 200.5t39 200.5t104 160t150.5 103.5t177.5 38zM553 625q144 0 222.5 57t78.5 168q0 226 -80 369t-221 143q-130 0 -216.5 -107.5t-86.5 -261.5t86.5 -261t216.5 -107z" />
    <glyph glyph-name="colon" unicode=":" horiz-adv-x="368" 
d="M287 983q0 -43 -30 -72.5t-73 -29.5t-72.5 29.5t-29.5 72.5t29.5 72.5t72.5 29.5t73 -29.5t30 -72.5zM287 82q0 -43 -30 -72.5t-73 -29.5t-72.5 29.5t-29.5 72.5t29.5 72.5t72.5 29.5t73 -29.5t30 -72.5z" />
    <glyph glyph-name="semicolon" unicode=";" horiz-adv-x="368" 
d="M287 983q0 -43 -30 -72.5t-73 -29.5t-72.5 29.5t-29.5 72.5t29.5 72.5t72.5 29.5t73 -29.5t30 -72.5zM276 143q-22 -90 -55 -200t-55 -175l-23 -65l-102 -20q31 252 41 430q1 26 20 38.5t41 12.5q36 0 69 -5t48 -11z" />
    <glyph glyph-name="less" unicode="&#x3c;" horiz-adv-x="1064" 
d="M41 809l922 584v-144l-461 -291l-359 -221q12 0 359 -221l461 -291v-143l-922 584v143z" />
    <glyph glyph-name="equal" unicode="=" horiz-adv-x="1187" 
d="M1044 264h-901v103h901v-103zM1044 698h-901v103h901v-103z" />
    <glyph glyph-name="greater" unicode="&#x3e;" horiz-adv-x="1064" 
d="M1024 809v-143l-922 -584v143l461 291l359 221q-12 0 -359 221l-461 291v144z" />
    <glyph glyph-name="question" unicode="?" horiz-adv-x="897" 
d="M477 82q0 43 -29.5 72.5t-72.5 29.5t-73 -29.5t-30 -72.5t30 -72.5t73 -29.5t72.5 29.5t29.5 72.5zM815 1106q0 -110 -46 -206.5t-175 -240.5q-91 -100 -119.5 -158t-28.5 -112l5 -61h-164q-4 8 -4 61q0 43 14 85.5t46 91t58 81t76 90.5q94 105 132 183t38 186
q0 107 -74 181.5t-198 74.5q-75 0 -158.5 -15.5t-129.5 -30.5l-46 -16v134q17 7 47.5 17t118.5 27t168 17q103 0 188.5 -33.5t139 -89t83 -124.5t29.5 -142z" />
    <glyph glyph-name="at" unicode="@" horiz-adv-x="1740" 
d="M983 1454q189 0 344.5 -85t243.5 -230.5t88 -319.5q0 -238 -92.5 -385t-255.5 -147q-72 0 -142.5 50t-81.5 132q-98 -233 -309 -233q-133 0 -222 92t-89 245q0 148 63 270.5t171 192.5t235 70q96 0 170 -15.5t100 -30.5l27 -16l-72 -337q-28 -142 20 -232t130 -90
q58 0 102.5 39t69.5 104t37 138.5t12 152.5q0 102 -40.5 198t-110.5 170.5t-174.5 119.5t-223.5 45q-222 0 -398.5 -101t-276 -283.5t-99.5 -414.5q0 -150 70.5 -277.5t192 -201.5t265.5 -74q92 0 179 11.5t144.5 28t102.5 33.5t65 29l21 11v-103q-7 -5 -20 -12.5t-60 -26.5
t-101.5 -34t-144 -27t-186.5 -12q-133 0 -254.5 52t-209 139.5t-139.5 209t-52 254.5q0 201 71 371.5t193 285.5t286.5 179.5t350.5 64.5zM1022 616l76 361q-62 27 -162 27q-140 0 -241 -123t-101 -308q0 -110 53.5 -172.5t130.5 -62.5q87 0 152 72.5t92 205.5z" />
    <glyph glyph-name="A" unicode="A" horiz-adv-x="1316" 
d="M743 1475l533 -1475h-170l-143 410h-607l-145 -410h-170l532 1475h170zM395 543h529l-101 284q-106 299 -164 486h-2q-62 -206 -161 -486z" />
    <glyph glyph-name="B" unicode="B" horiz-adv-x="1198" 
d="M840 768q124 -33 200 -134.5t76 -223.5q0 -194 -146 -312t-417 -118q-95 0 -197.5 5t-157.5 10l-55 5v1475q238 20 410 20q134 0 237.5 -31.5t167 -87.5t95.5 -129.5t32 -161.5q0 -113 -75.5 -204.5t-169.5 -112.5zM307 1352v-533q168 -4 246 -4q182 0 273.5 65.5
t91.5 204.5q0 40 -7.5 75t-31 73.5t-62 65.5t-106.5 45t-158 18q-38 0 -99.5 -2.5t-103.5 -5.5zM553 113q192 0 293.5 79.5t101.5 217.5q0 57 -19.5 103.5t-62.5 85.5t-122.5 61t-190.5 22l-246 -6v-553q127 -10 246 -10z" />
    <glyph glyph-name="C" unicode="C" 
d="M250 737q0 -156 45 -278.5t121 -196.5t171 -111.5t201 -37.5q67 0 146.5 15t125.5 30l46 16v-133q-17 -7 -46.5 -17t-118.5 -27t-173 -17q-141 0 -263 46.5t-217.5 137.5t-150.5 238t-55 335q0 151 36 276.5t99 213.5t150 149t188 90t213 29q84 0 168.5 -15.5
t127.5 -30.5l42 -15v-134q-19 7 -51 17.5t-116 27.5t-151 17q-106 0 -201 -38t-171 -111.5t-121 -196.5t-45 -279z" />
    <glyph glyph-name="D" unicode="D" horiz-adv-x="1372" 
d="M143 1475q148 20 359 20q81 0 159.5 -12t157 -39.5t147.5 -68.5t129 -102.5t103 -138t67.5 -178t24.5 -219.5q0 -137 -32.5 -252t-90.5 -196t-133 -142t-165 -96.5t-181 -53t-186 -17.5q-94 0 -183.5 5t-132.5 10l-43 5v1475zM307 1352v-1229q113 -10 195 -10
q87 0 170.5 19t166.5 65.5t144.5 116t100 178.5t38.5 245t-38.5 245.5t-100 178.5t-144.5 116t-166.5 66t-170.5 19q-36 0 -85 -2.5t-79 -5.5z" />
    <glyph glyph-name="E" unicode="E" horiz-adv-x="1105" 
d="M307 133h697v-133h-861v1475h840v-134h-676v-497h635v-133h-635v-578z" />
    <glyph glyph-name="F" unicode="F" horiz-adv-x="1024" 
d="M307 0h-164v1475h820v-134h-656v-542h574v-133h-574v-666z" />
    <glyph glyph-name="G" unicode="G" horiz-adv-x="1341" 
d="M758 748h471v-748q-148 -20 -359 -20q-115 0 -224 25t-212.5 83t-180.5 143t-124 215.5t-47 290.5t47 290.5t124 216t180.5 143.5t212.5 83t224 25q94 0 173.5 -10.5t112.5 -20.5l32 -10v-133q-10 5 -31.5 11.5t-103.5 18t-183 11.5q-86 0 -170.5 -20.5t-166.5 -68
t-144.5 -117.5t-100.5 -178.5t-38 -240.5q0 -96 20 -179t54.5 -145.5t82.5 -113.5t103 -85t116.5 -57t122 -33.5t121.5 -10.5q36 0 85 2.5t79 4.5l31 3v491h-307v134z" />
    <glyph glyph-name="H" unicode="H" horiz-adv-x="1433" 
d="M1126 1475h164v-1475h-164v700h-819v-700h-164v1475h164v-641h819v641z" />
    <glyph glyph-name="I" unicode="I" horiz-adv-x="450" 
d="M307 0h-164v1475h164v-1475z" />
    <glyph glyph-name="J" unicode="J" horiz-adv-x="952" 
d="M829 1475v-943q0 -126 -28 -222t-77.5 -158t-124 -101t-160 -55t-193.5 -16q-57 0 -108.5 5t-73.5 10l-23 5v133q72 -20 205 -20q217 0 318.5 96.5t101.5 322.5v943h163z" />
    <glyph glyph-name="K" unicode="K" 
d="M1141 1475l-604 -687l630 -788h-204l-535 666l-121 -138v-528h-164v1475h164v-730l641 730h193z" />
    <glyph glyph-name="L" unicode="L" horiz-adv-x="1105" 
d="M307 133h758v-133h-922v1475h164v-1342z" />
    <glyph glyph-name="M" unicode="M" horiz-adv-x="1761" 
d="M881 145q92 243 247 590l330 740h160v-1475h-164v940q0 73 3 136t6 90l3 26h-2q-45 -127 -190 -457l-328 -737h-131l-328 737q-145 330 -190 457h-2q12 -88 12 -252v-940h-164v1475h160l330 -740q162 -363 246 -590h2z" />
    <glyph glyph-name="N" unicode="N" horiz-adv-x="1433" 
d="M311 1475l492 -738l129 -205q6 -10 88 -140.5t117 -190.5h2q-13 167 -13 331v943h164v-1475h-168l-491 737l-129 205q-204 330 -205 332h-2q12 -168 12 -332v-942h-164v1475h168z" />
    <glyph glyph-name="O" unicode="O" horiz-adv-x="1515" 
d="M758 1495q118 0 224.5 -39.5t188 -110t141.5 -165t91 -208t31 -235.5q0 -152 -49.5 -290t-136.5 -241.5t-215 -164.5t-275 -61t-275 61t-215 164.5t-136.5 241.5t-49.5 290q0 122 31 235.5t91 208t141.5 165t188 110t224.5 39.5zM758 113q146 0 263.5 86.5t181 228.5
t63.5 309t-63.5 309.5t-181 229t-263.5 86.5t-263.5 -86.5t-181 -229t-63.5 -309.5t63.5 -309t181 -228.5t263.5 -86.5z" />
    <glyph glyph-name="P" unicode="P" horiz-adv-x="1126" 
d="M897 1034q0 43 -10 85.5t-36 87.5t-65.5 78.5t-105 55t-148.5 21.5q-38 0 -94.5 -2.5t-93.5 -5.5l-37 -2v-635q147 -10 225 -10q83 0 148.5 21.5t105 55t65.5 78t36 87t10 85.5zM1065 1034q0 -70 -19.5 -135.5t-62 -125t-103.5 -104t-150.5 -70.5t-197.5 -26
q-45 0 -101.5 2.5t-90.5 5.5l-33 3v-584h-164v1475q217 20 389 20q108 0 197.5 -26t150.5 -70.5t103.5 -104t62 -125t19.5 -135.5z" />
    <glyph glyph-name="Q" unicode="Q" horiz-adv-x="1515" 
d="M1434 737q0 -200 -83 -372t-229 -273l119 -276h-174l-88 202q-103 -38 -221 -38q-147 0 -275 61t-215 164.5t-136.5 241.5t-49.5 290q0 122 31 235.5t91 208t141.5 165t188 110t224.5 39.5t224.5 -39.5t188 -110t141.5 -165t91 -208t31 -235.5zM250 737q0 -167 63.5 -309
t181 -228.5t263.5 -86.5t263.5 86.5t181 228.5t63.5 309t-63.5 309.5t-181 229t-263.5 86.5t-263.5 -86.5t-181 -229t-63.5 -309.5z" />
    <glyph glyph-name="R" unicode="R" horiz-adv-x="1181" 
d="M307 1352v-574q168 -4 246 -4q172 0 268.5 83.5t96.5 207.5q0 43 -7.5 80t-31 78.5t-62 71t-106.5 48.5t-158 19q-38 0 -99.5 -2.5t-103.5 -5.5zM143 0v1475q238 20 410 20q133 0 237 -34.5t167.5 -94.5t95.5 -136t32 -165q0 -73 -26 -135.5t-68 -104t-88.5 -67.5
t-93.5 -37q40 -11 69 -27.5t58.5 -49t51 -88t36.5 -136.5q25 -136 54.5 -241t45.5 -142l17 -37h-183q-5 6 -13.5 25t-35.5 125.5t-53 269.5q-9 55 -26.5 93t-50.5 68.5t-89 45t-137 14.5l-246 -6v-635h-164z" />
    <glyph glyph-name="S" unicode="S" horiz-adv-x="1003" 
d="M92 1137q0 160 126 259t325 99q98 0 180 -15.5t115 -30.5l32 -15v-134q-17 7 -47 17.5t-116 27.5t-164 17q-131 0 -207 -63t-76 -162q0 -87 58 -156t223 -164q83 -48 133.5 -80.5t101 -75t76.5 -82.5t42.5 -93t16.5 -117q0 -184 -123.5 -286.5t-326.5 -102.5
q-106 0 -198 15t-131 31l-40 15v133q16 -7 46.5 -17t127 -27t195.5 -17q126 0 204 65.5t78 190.5q0 49 -13.5 86t-51 73.5t-85 68.5t-132.5 81q-112 65 -178 112t-111.5 101t-62.5 110.5t-17 135.5z" />
    <glyph glyph-name="T" unicode="T" horiz-adv-x="1187" 
d="M1147 1475v-134h-471v-1341h-164v1341h-471v134h1106z" />
    <glyph glyph-name="U" unicode="U" horiz-adv-x="1310" 
d="M1188 532q0 -120 -33 -220t-98 -174.5t-167.5 -116t-234.5 -41.5q-260 0 -396 152t-136 400v943h164v-943q0 -419 368 -419q369 0 369 419v943h164v-943z" />
    <glyph glyph-name="V" unicode="V" horiz-adv-x="1316" 
d="M659 184q68 220 160 471l287 820h170l-533 -1475h-170l-532 1475h170l289 -820q89 -242 157 -471h2z" />
    <glyph glyph-name="W" unicode="W" horiz-adv-x="1933" 
d="M1040 1475l234 -820q74 -252 117 -430h2q53 230 110 430l223 820h166l-413 -1475h-158l-231 819q-84 293 -123 451h-2q-38 -159 -121 -451l-234 -819h-157l-412 1475h166l223 -820q62 -219 111 -430h2q49 199 116 430l232 820h149z" />
    <glyph glyph-name="X" unicode="X" horiz-adv-x="1167" 
d="M584 858q19 59 82 166l256 451h184l-430 -721l450 -754h-184l-256 451q-71 123 -102 198h-2q-27 -69 -101 -198l-256 -451h-184l451 754l-431 721h185l256 -451q68 -124 80 -166h2z" />
    <glyph glyph-name="Y" unicode="Y" horiz-adv-x="1163" 
d="M582 752q32 82 129 272l231 451h180l-458 -857v-618h-164v618l-459 857h180l232 -451q97 -189 127 -272h2z" />
    <glyph glyph-name="Z" unicode="Z" 
d="M295 133h801v-10v-123h-983v133l780 1208h-760v11v123h942v-134z" />
    <glyph glyph-name="bracketleft" unicode="[" horiz-adv-x="573" 
d="M471 1434h-205v-1393h205v-102h-328v1597h328v-102z" />
    <glyph glyph-name="backslash" unicode="\" horiz-adv-x="819" 
d="M94 1536l766 -1597h-133l-768 1597h135z" />
    <glyph glyph-name="bracketright" unicode="]" horiz-adv-x="573" 
d="M102 1434v102h328v-1597h-328v102h205v1393h-205z" />
    <glyph glyph-name="asciicircum" unicode="^" horiz-adv-x="655" 
d="M328 1448h-2q-15 -61 -66 -178l-88 -205h-131l221 471h131l221 -471h-131l-88 205q-49 112 -67 178z" />
    <glyph glyph-name="underscore" unicode="_" horiz-adv-x="1187" 
d="M1044 -236h-901v103h901v-103z" />
    <glyph glyph-name="grave" unicode="`" horiz-adv-x="440" 
d="M41 1536q49 20 143 20q17 0 32 -9t20 -21q25 -59 66 -146t69 -144l28 -58l-92 -11q-16 17 -44 48.5t-98.5 128t-123.5 192.5z" />
    <glyph glyph-name="a" unicode="a" horiz-adv-x="1054" 
d="M502 1085q129 0 226.5 -63t145.5 -159.5t48 -207.5v-655h-144q-20 70 -20 164q-40 -89 -119 -136.5t-178 -47.5q-71 0 -133.5 18t-117 55.5t-86.5 105t-32 158.5q0 160 107 269.5t282 109.5q79 0 148.5 -10t98.5 -20l30 -11q0 297 -277 297q-87 0 -163.5 -15t-109.5 -31
l-34 -15v133q16 7 45.5 17t115.5 27t167 17zM758 440v92q-97 31 -277 31q-101 0 -161 -69t-60 -177q0 -100 55 -152t146 -52q130 0 213.5 92t83.5 235z" />
    <glyph glyph-name="b" unicode="b" 
d="M655 1085q128 0 237 -75t171.5 -202.5t62.5 -275.5t-62.5 -275t-171 -202t-237.5 -75q-244 0 -348 184q0 -42 -5 -83t-10 -61l-5 -20h-144v1536h164v-635q104 184 348 184zM614 113q151 0 247.5 113t96.5 306t-96.5 306.5t-247.5 113.5q-130 0 -218.5 -94.5t-88.5 -222.5
v-205q0 -128 88.5 -222.5t218.5 -94.5z" />
    <glyph glyph-name="c" unicode="c" horiz-adv-x="972" 
d="M82 532q0 255 148.5 404t394.5 149q67 0 128 -7.5t89 -15.5l28 -7v-133q-125 30 -266 30q-161 0 -257.5 -116t-96.5 -304t96.5 -303.5t257.5 -115.5q63 0 129.5 7.5t101.5 15.5l35 7v-133q-95 -30 -245 -30q-246 0 -394.5 148.5t-148.5 403.5z" />
    <glyph glyph-name="d" unicode="d" 
d="M82 532q0 148 62.5 275.5t171.5 202.5t237 75q244 0 348 -184v635h164v-1536h-143q-21 70 -21 164q-104 -184 -348 -184q-129 0 -237.5 75t-171 202t-62.5 275zM250 532q0 -193 96 -306t248 -113q130 0 218.5 94.5t88.5 222.5v205q0 128 -88.5 222.5t-218.5 94.5
q-152 0 -248 -113.5t-96 -306.5z" />
    <glyph glyph-name="e" unicode="e" horiz-adv-x="1126" 
d="M246 522q0 -205 106.5 -307t282.5 -102q79 0 151 10.5t104 20.5l32 10v-134q-7 -4 -23.5 -11t-85.5 -18t-158 -11q-118 0 -219.5 32.5t-181.5 97t-126 173t-46 249.5q0 129 42.5 236.5t112.5 175t157 104.5t179 37q95 0 174 -31.5t129 -80t84.5 -110t49 -119t14.5 -109.5
l-6 -113h-772zM573 952q-133 0 -226 -91t-93 -216h614q0 136 -78.5 221.5t-216.5 85.5z" />
    <glyph glyph-name="f" unicode="f" horiz-adv-x="675" 
d="M225 1126q0 65 10 123.5t36.5 116t67 98.5t106 66.5t149.5 25.5q39 0 72.5 -2.5t47.5 -5.5l13 -2v-133q-65 10 -133 10q-99 0 -152 -77t-53 -220v-61h246v-133h-246v-932h-164v932h-184v133h184v61z" />
    <glyph glyph-name="g" unicode="g" 
d="M922 1065h143v-1004q0 -131 -40.5 -237t-110.5 -174.5t-162.5 -105t-198.5 -36.5q-108 0 -195 15.5t-120 30.5l-33 16v133q15 -7 42 -17t112.5 -27t172.5 -17q164 0 266.5 114.5t102.5 304.5v103q-104 -184 -348 -184q-129 0 -237.5 75t-171 202t-62.5 275t62.5 275.5
t171.5 202.5t237 75q244 0 348 -184q0 42 5.5 83t10.5 61zM901 430v205q0 128 -88.5 222.5t-218.5 94.5q-152 0 -248 -113.5t-96 -306.5t96 -306t248 -113q130 0 218.5 94.5t88.5 222.5z" />
    <glyph glyph-name="h" unicode="h" horiz-adv-x="1177" 
d="M655 1085q83 0 150 -26t111 -70.5t73.5 -105.5t42 -127.5t12.5 -141.5v-614h-163v573q0 70 -7 124.5t-25 104t-48 81.5t-77 50.5t-110 18.5q-143 0 -225 -89.5t-82 -237.5v-625h-164v1536h164v-635q104 184 348 184z" />
    <glyph glyph-name="i" unicode="i" horiz-adv-x="450" 
d="M307 0h-164v1065h164v-1065zM328 1393q0 -43 -30 -73t-73 -30t-72.5 30t-29.5 73t29.5 72.5t72.5 29.5t73 -29.5t30 -72.5z" />
    <glyph glyph-name="j" unicode="j" horiz-adv-x="501" 
d="M358 1065v-1147q0 -89 -20.5 -161t-65 -129t-121.5 -88.5t-182 -31.5v144q122 0 174 59.5t52 206.5v1147h163zM379 1393q0 -43 -30 -73t-73 -30t-72.5 30t-29.5 73t29.5 72.5t72.5 29.5t73 -29.5t30 -72.5z" />
    <glyph glyph-name="k" unicode="k" horiz-adv-x="1083" 
d="M1010 1065l-432 -463l464 -602h-200l-377 485l-158 -170v-315h-164v1536h164v-1012l506 541h197z" />
    <glyph glyph-name="l" unicode="l" horiz-adv-x="450" 
d="M307 0h-164v1536h164v-1536z" />
    <glyph glyph-name="m" unicode="m" horiz-adv-x="1751" 
d="M1270 1085q172 0 260 -113.5t88 -336.5v-635h-164v635q0 164 -54.5 240.5t-170.5 76.5q-70 0 -122.5 -27t-83 -74t-45.5 -103.5t-15 -122.5v-625h-164v635q0 164 -55 240.5t-171 76.5q-70 0 -122.5 -27t-83 -74t-45.5 -103.5t-15 -122.5v-625h-164v1065h144
q20 -70 20 -164q104 184 307 184q244 0 318 -223q117 223 338 223z" />
    <glyph glyph-name="n" unicode="n" horiz-adv-x="1177" 
d="M307 901q104 184 348 184q83 0 150 -26t111 -70.5t73.5 -105.5t42 -127.5t12.5 -141.5v-614h-163v573q0 70 -7 124.5t-25 104t-48 81.5t-77 50.5t-110 18.5q-143 0 -225 -89.5t-82 -237.5v-625h-164v1065h144q20 -70 20 -164z" />
    <glyph glyph-name="o" unicode="o" horiz-adv-x="1187" 
d="M594 1085q144 0 262 -74.5t184 -201t66 -277.5q0 -113 -39 -214.5t-106.5 -176t-163 -118t-203.5 -43.5t-203.5 43.5t-163 118t-106.5 176t-39 214.5q0 151 66 277.5t184 201t262 74.5zM594 113q108 0 188 59.5t118 153t38 206.5t-38 207t-118 153.5t-188 59.5
t-188 -59.5t-118 -153.5t-38 -207t38 -206.5t118 -153t188 -59.5z" />
    <glyph glyph-name="p" unicode="p" 
d="M1126 532q0 -148 -62.5 -275t-171 -202t-237.5 -75q-244 0 -348 184v-635h-164v1536h144q20 -70 20 -164q104 184 348 184q128 0 237 -75t171.5 -202.5t62.5 -275.5zM958 532q0 193 -96.5 306.5t-247.5 113.5q-130 0 -218.5 -94.5t-88.5 -222.5v-205q0 -128 88.5 -222.5
t218.5 -94.5q151 0 247.5 113t96.5 306z" />
    <glyph glyph-name="q" unicode="q" 
d="M553 -20q-129 0 -237.5 75t-171 202t-62.5 275t62.5 275.5t171.5 202.5t237 75q244 0 348 -184q0 42 5.5 83t10.5 61l5 20h143v-1536h-164v635q-104 -184 -348 -184zM594 952q-152 0 -248 -113.5t-96 -306.5t96 -306t248 -113q130 0 218.5 94.5t88.5 222.5v205
q0 128 -88.5 222.5t-218.5 94.5z" />
    <glyph glyph-name="r" unicode="r" horiz-adv-x="696" 
d="M307 840q25 105 114 175t234 70v-143q-123 0 -197.5 -45.5t-112.5 -154t-38 -291.5v-451h-164v1065h144q20 -80 20 -225z" />
    <glyph glyph-name="s" unicode="s" horiz-adv-x="839" 
d="M381 463q-45 25 -62 34.5t-53.5 32t-51 34.5t-40 34t-36 39.5t-24 42t-18 51t-4.5 57.5q0 132 101.5 214.5t257.5 82.5q62 0 123 -7.5t92 -15.5l30 -7v-133q-86 30 -266 30q-74 0 -122 -47t-48 -117q0 -45 43 -84t156 -102q157 -88 223 -161.5t66 -174.5
q0 -126 -92.5 -206t-266.5 -80q-86 0 -157.5 7.5t-100.5 14.5l-29 8v133q92 -30 287 -30q94 0 142.5 44.5t48.5 108.5q0 53 -50.5 98t-148.5 99z" />
    <glyph glyph-name="t" unicode="t" horiz-adv-x="706" 
d="M625 1065v-133h-246v-666q0 -88 27 -120.5t96 -32.5q36 0 67 2.5t43 4.5l13 3v-133q-3 -10 -144 -10q-142 0 -204 58.5t-62 207.5v686h-174v133h174v246h164v-246h246z" />
    <glyph glyph-name="u" unicode="u" horiz-adv-x="1177" 
d="M870 164q-104 -184 -348 -184q-177 0 -283 116.5t-106 333.5v635h164v-635q0 -158 72.5 -237.5t193.5 -79.5q139 0 223 97t84 230v625h164v-1065h-143q-21 70 -21 164z" />
    <glyph glyph-name="v" unicode="v" horiz-adv-x="1073" 
d="M537 172q41 135 112 320l211 573h172l-409 -1065h-172l-410 1065h172l211 -573q77 -201 111 -320h2z" />
    <glyph glyph-name="w" unicode="w" horiz-adv-x="1662" 
d="M831 897h-2q-30 -115 -98 -324l-192 -573h-160l-338 1065h168l176 -573q56 -183 84 -304h2q24 93 92 304l193 573h151l191 -573q64 -187 94 -304h2q28 121 84 304l176 573h168l-338 -1065h-160l-192 573q-75 229 -101 324z" />
    <glyph glyph-name="x" unicode="x" horiz-adv-x="1056" 
d="M528 451h-2q-21 -48 -86 -144l-202 -307h-197l389 547l-369 518h197l203 -307q55 -88 65 -115h2q17 40 68 115l203 307h196l-368 -518l389 -547h-197l-203 307q-60 89 -88 144z" />
    <glyph glyph-name="y" unicode="y" horiz-adv-x="1073" 
d="M41 1065h172l211 -573q77 -201 111 -320h2q41 135 112 320l211 573h172l-448 -1167q-48 -125 -92.5 -200t-102 -118t-121.5 -57.5t-162 -14.5v144q57 0 91.5 6.5t68.5 24.5t61.5 58.5t56.5 100t67 158.5z" />
    <glyph glyph-name="z" unicode="z" horiz-adv-x="1044" 
d="M313 133h619v-133h-819v133l598 799h-578v133h778v-133z" />
    <glyph glyph-name="braceleft" unicode="{" horiz-adv-x="634" 
d="M184 737q6 -3 15 -8.5t32 -26.5t39.5 -46t28.5 -67t8 -89l-20 -254q-8 -98 45.5 -151.5t199.5 -53.5v-102q-189 0 -284.5 75.5t-83.5 231.5l20 254q3 38 -6.5 71t-25 53t-31.5 35t-27 21l-12 6v102q5 2 12.5 6.5t26 20.5t32.5 35.5t24 53t7 71.5l-20 254
q-12 156 83.5 231.5t284.5 75.5v-102q-146 0 -199.5 -53.5t-45.5 -151.5l20 -254q4 -47 -7.5 -89t-30 -68t-38 -45.5t-33.5 -27.5z" />
    <glyph glyph-name="bar" unicode="|" horiz-adv-x="409" 
d="M266 -471h-123v2007h123v-2007z" />
    <glyph glyph-name="braceright" unicode="}" horiz-adv-x="634" 
d="M451 737q-6 3 -15 8.5t-32 27t-39.5 46.5t-28.5 67t-8 89l20 254q8 98 -46 151.5t-200 53.5v102q189 0 285 -75.5t84 -231.5l-20 -254q-3 -38 6.5 -71t25 -53.5t31.5 -35.5t28 -21l11 -6v-102q-5 -2 -12.5 -6.5t-26 -20.5t-32.5 -35.5t-24 -52.5t-7 -71l20 -254
q12 -156 -84 -231.5t-285 -75.5v102q146 0 200 53.5t46 151.5l-20 254q-4 47 7.5 88.5t30 67.5t38 45.5t33.5 27.5z" />
    <glyph glyph-name="asciitilde" unicode="~" horiz-adv-x="819" 
d="M410 1427q3 -1 25.5 -10t33 -12.5t32 -11t35 -11.5t30 -7t28.5 -3q35 0 58.5 32.5t23.5 70.5h102q0 -59 -18 -108.5t-61 -83.5t-105 -34q-11 0 -23 1.5t-27 5.5t-26 7.5t-29 10t-26 10t-28 11.5l-25 10q-134 57 -185 57q-35 0 -58.5 -32t-23.5 -70h-102q0 59 18 108
t61 83t105 34q53 0 185 -58z" />
    <glyph glyph-name="quoteleft" unicode="&#x2018;" horiz-adv-x="317" 
d="M41 1096q22 90 55 200t56 175l22 65l102 20q-30 -252 -40 -430q-1 -26 -20.5 -38.5t-41.5 -12.5q-36 0 -69 5.5t-49 10.5z" />
    <glyph glyph-name="quoteright" unicode="&#x2019;" horiz-adv-x="317" 
d="M276 1536q-22 -90 -55 -200t-55 -175l-23 -65l-102 -21q31 252 41 430q1 26 20 38.5t41 12.5q36 0 69 -5t48 -10z" />
    <glyph glyph-name="quotedblleft" unicode="&#x201c;" horiz-adv-x="563" 
d="M287 1096q22 90 55 200t56 175l22 65l102 20q-31 -252 -41 -430q-1 -26 -20 -38.5t-41 -12.5q-36 0 -69 5.5t-49 10.5zM41 1096q22 90 55 200t56 175l22 65l102 20q-30 -252 -40 -430q-1 -26 -20.5 -38.5t-41.5 -12.5q-36 0 -69 5.5t-49 10.5z" />
    <glyph glyph-name="quotedblright" unicode="&#x201d;" horiz-adv-x="563" 
d="M276 1536q-22 -90 -55 -200t-55 -175l-23 -65l-102 -21q31 252 41 430q1 26 20 38.5t41 12.5q36 0 69 -5t48 -10zM522 1536q-22 -90 -55 -200t-55 -175l-23 -65l-102 -21q31 252 41 430q1 26 20 38.5t41 12.5q36 0 69 -5t48 -10z" />
    <glyph glyph-name="fi" unicode="&#xfb01;" horiz-adv-x="1105" 
d="M389 1065h574v-1065h-164v932h-410v-932h-164v932h-184v133h184v61q0 193 119 311.5t332 118.5q48 0 96.5 -5t73.5 -10l24 -5v-133q-85 20 -194 20q-132 0 -209.5 -78t-77.5 -219v-61z" />
    <glyph glyph-name="fl" unicode="&#xfb02;" horiz-adv-x="1085" 
d="M676 1556q56 0 122.5 -10t105.5 -20l38 -10v-1516h-164v1405q-51 18 -102 18q-146 0 -216.5 -71t-70.5 -226v-61h246v-133h-246v-932h-164v932h-184v133h184v61q0 210 116 320t335 110z" />
  </font>
</defs>
</svg>
