<?xml version="1.0" standalone="no"?>
<!DOCTYPE svg PUBLIC "-//W3C//DTD SVG 20010904//EN"
 "http://www.w3.org/TR/2001/REC-SVG-20010904/DTD/svg10.dtd">
<svg version="1.0" xmlns="http://www.w3.org/2000/svg"
 width="1000.000000pt" height="250.000000pt" viewBox="0 0 1000.000000 250.000000"
 preserveAspectRatio="xMidYMid meet">

<g transform="translate(0.000000,250.000000) scale(0.100000,-0.100000)"
fill="#000000" stroke="none">
<path d="M4010 2001 c-228 -70 -463 -393 -592 -816 -30 -100 -33 -105 -67
-118 -20 -8 -53 -17 -75 -21 -33 -6 -38 -5 -32 9 49 130 -31 238 -152 205 -61
-16 -92 -59 -92 -125 0 -64 13 -101 47 -137 l26 -27 -42 -55 c-59 -76 -186
-195 -227 -212 -45 -19 -60 -18 -84 6 -25 25 -25 61 0 144 43 136 227 358 335
402 88 37 44 68 -84 62 -116 -6 -182 -37 -277 -132 -56 -56 -81 -91 -118 -166
-25 -53 -46 -103 -46 -112 0 -27 -99 -106 -185 -149 -62 -31 -96 -41 -150 -45
-69 -6 -71 -5 -100 25 -43 46 -42 120 3 215 71 151 169 253 273 283 45 13 52
13 74 -1 35 -23 34 -77 -2 -128 -24 -36 -25 -40 -10 -55 33 -33 97 25 111 102
9 44 -21 122 -56 148 -35 26 -123 34 -197 17 -162 -36 -306 -167 -367 -334
-32 -88 -34 -217 -5 -275 43 -83 128 -128 219 -116 116 16 200 50 316 130 58
39 67 43 72 28 41 -130 113 -180 243 -171 112 8 220 76 332 206 27 31 61 81
76 110 17 32 36 54 48 56 11 2 44 9 74 15 30 6 56 9 58 7 2 -2 -1 -49 -7 -103
-23 -198 33 -333 156 -373 54 -18 150 -8 210 23 51 26 186 128 213 160 13 16
16 15 37 -17 42 -61 87 -81 184 -81 77 0 92 3 154 34 86 42 215 168 270 264
29 50 45 69 65 73 147 29 244 75 316 149 40 41 60 53 94 59 23 3 46 4 51 1 5
-3 -8 -33 -29 -68 -78 -127 -131 -277 -131 -367 0 -123 121 -184 260 -131 51
20 161 93 194 130 26 28 32 27 40 -10 19 -95 101 -149 228 -149 119 0 220 39
345 131 59 44 63 46 63 22 0 -29 37 -82 72 -103 88 -54 233 4 403 161 l42 39
5 -64 c9 -105 60 -156 155 -156 80 0 225 83 322 184 19 20 39 36 43 36 4 0 8
-20 8 -44 0 -87 40 -152 115 -187 51 -24 170 -25 246 -3 187 54 385 230 561
498 58 88 71 129 43 139 -20 8 -42 -14 -131 -133 -117 -157 -261 -295 -359
-346 -73 -38 -156 -64 -205 -64 -10 0 -31 10 -45 23 -21 18 -27 32 -28 70 l-2
49 84 24 c257 75 438 251 400 389 -40 143 -309 117 -484 -46 -35 -33 -82 -88
-103 -122 -73 -115 -272 -288 -380 -330 -83 -33 -82 1 2 170 70 139 243 431
379 641 75 115 90 132 109 128 52 -11 350 -15 430 -7 94 10 139 28 164 66 18
28 11 61 -15 70 -9 3 -44 -4 -77 -16 -47 -16 -94 -21 -232 -26 l-174 -6 -24
29 c-13 16 -23 39 -24 50 0 38 -49 60 -107 49 -26 -5 -51 -22 -88 -60 l-51
-54 -130 -1 c-178 -2 -167 -4 -154 19 17 32 12 58 -16 80 -15 12 -41 21 -59
21 -37 0 -102 -43 -136 -90 -23 -30 -23 -30 -123 -30 -217 -1 -336 -39 -300
-97 15 -25 48 -27 80 -7 20 14 54 19 140 22 63 3 114 2 114 -1 0 -3 -29 -47
-65 -96 -92 -128 -182 -269 -252 -396 -62 -111 -133 -271 -133 -299 0 -21
-117 -116 -189 -155 -74 -39 -173 -65 -217 -56 -41 7 -67 49 -62 102 3 35 3
35 87 60 243 70 412 225 399 365 -10 94 -87 133 -224 110 -168 -28 -322 -152
-405 -327 -16 -33 -29 -65 -29 -72 0 -16 -181 -185 -222 -207 -107 -58 -88 71
49 344 40 79 73 154 73 165 0 28 -30 55 -61 55 -13 0 -58 -6 -99 -14 -71 -14
-143 -20 -184 -17 -13 1 -16 6 -11 19 4 9 19 46 32 81 22 59 22 65 8 87 -34
53 -118 13 -151 -71 -22 -59 -15 -137 15 -169 l22 -23 -36 -32 c-52 -46 -116
-75 -207 -95 l-27 -6 6 68 c4 53 2 75 -11 101 -18 33 -66 61 -108 61 -36 0
-102 -38 -121 -69 -34 -57 -10 -177 43 -214 21 -15 21 -15 -53 -103 -100 -121
-193 -194 -245 -194 -63 0 -69 110 -13 224 72 147 234 321 323 348 44 13 47
22 13 44 -19 12 -43 15 -108 13 -68 -3 -93 -9 -147 -36 -81 -40 -130 -80 -179
-147 -75 -101 -136 -251 -129 -317 2 -25 -7 -40 -61 -94 -149 -152 -262 -183
-306 -85 -15 32 -17 57 -12 142 3 57 11 125 19 151 12 46 16 50 65 67 92 32
175 90 284 199 294 293 433 696 275 792 -33 20 -126 25 -176 10z m128 -133
c19 -19 14 -63 -14 -146 -65 -190 -198 -405 -322 -523 -72 -69 -184 -140 -198
-126 -15 14 94 290 174 442 64 121 115 196 181 267 77 83 148 117 179 86z
m2880 -204 l30 -6 -64 -89 c-101 -140 -201 -301 -271 -438 -47 -91 -81 -142
-121 -184 -74 -76 -203 -174 -270 -205 -47 -21 -56 -22 -68 -10 -12 12 -13 20
0 54 36 103 187 370 383 680 96 150 121 182 147 191 35 12 188 16 234 7z
m-1006 -441 c59 -53 -45 -179 -217 -262 -77 -38 -155 -65 -155 -54 0 22 93
175 132 219 90 97 193 140 240 97z m1692 1 c69 -68 -98 -232 -311 -305 -40
-14 -53 -15 -53 -5 0 24 59 131 104 188 86 109 214 169 260 122z m-4536 -68
c5 -24 -27 -96 -43 -96 -35 0 -48 69 -18 102 21 23 57 20 61 -6z m1407 5 c8
-25 -30 -101 -50 -101 -34 0 -42 72 -13 107 16 20 56 16 63 -6z"/>
<path d="M5961 1534 c-34 -36 -59 -69 -56 -75 4 -5 28 -9 55 -9 46 0 55 4 122
62 40 33 80 67 88 75 12 11 2 13 -67 13 l-81 0 -61 -66z"/>
</g>
</svg>
